# xmcd CD database file
#
# Track frame offsets:
#	183
#	23508
#	55308
#	64683
#	75783
#	97308
#	119583
#	173058
#	192258
#	204258
#	219408
#	247008
#	258928
#	277008
#	310608
#
# Disc length: 4367 seconds
#
# Revision: 4
# Processed by: cddbd v1.5.2PL0 Copyright (c) Steve Scherf et al.
# Submitted via: CDex 1.50
#
DISCID=cc110d0f
DTITLE=Livin´ Blues - Wang Dang Doodle and Bamboozle
DYEAR=1970
DGENRE=Blues
TTITLE0=Wang Dang Doodle
TTITLE1=I Came Home at Night
TTITLE2=Whiskey and Gin
TTITLE3=This Is the Hour
TTITLE4=When the Sun Goes Down
TTITLE5=Go-Go-Train
TTITLE6=Spoonful
TTITLE7=L.B. Boogie
TTITLE8=Sunrise
TTITLE9=Keep On
TTITLE10=Hitch-Hikin´
TTITLE11=Bamboozle Song
TTITLE12=Overture
TTITLE13=Black Night
TTITLE14=Big City Man
EXTD=YEAR: 1970
EXTT0=
EXTT1=
EXTT2=
EXTT3=
EXTT4=
EXTT5=
EXTT6=
EXTT7=
EXTT8=
EXTT9=
EXTT10=
EXTT11=
EXTT12=
EXTT13=
EXTT14=
PLAYORDER=
